<svg width="212" height="212" viewBox="0 0 212 212" fill="none" xmlns="http://www.w3.org/2000/svg">
<path d="M106 0.125C108.006 0.125 109.929 0.921761 111.348 2.34C112.766 3.75825 113.562 5.6818 113.562 7.6875V53.0625C113.562 55.0682 112.766 56.9917 111.348 58.41C109.929 59.8282 108.006 60.625 106 60.625C103.994 60.625 102.071 59.8282 100.653 58.41C99.2343 56.9917 98.4375 55.0682 98.4375 53.0625V7.6875C98.4375 5.6818 99.2343 3.75825 100.653 2.34C102.071 0.921761 103.994 0.125 106 0.125ZM106 151.375C108.006 151.375 109.929 152.172 111.348 153.59C112.766 155.008 113.562 156.932 113.562 158.938V204.312C113.562 206.318 112.766 208.242 111.348 209.66C109.929 211.078 108.006 211.875 106 211.875C103.994 211.875 102.071 211.078 100.653 209.66C99.2343 208.242 98.4375 206.318 98.4375 204.312V158.938C98.4375 156.932 99.2343 155.008 100.653 153.59C102.071 152.172 103.994 151.375 106 151.375ZM211.875 106C211.875 108.006 211.078 109.929 209.66 111.348C208.242 112.766 206.318 113.562 204.312 113.562H158.938C156.932 113.562 155.008 112.766 153.59 111.348C152.172 109.929 151.375 108.006 151.375 106C151.375 103.994 152.172 102.071 153.59 100.653C155.008 99.2343 156.932 98.4375 158.938 98.4375H204.312C206.318 98.4375 208.242 99.2343 209.66 100.653C211.078 102.071 211.875 103.994 211.875 106ZM60.625 106C60.625 108.006 59.8282 109.929 58.41 111.348C56.9917 112.766 55.0682 113.562 53.0625 113.562H7.6875C5.6818 113.562 3.75825 112.766 2.34 111.348C0.921761 109.929 0.125 108.006 0.125 106C0.125 103.994 0.921761 102.071 2.34 100.653C3.75825 99.2343 5.6818 98.4375 7.6875 98.4375H53.0625C55.0682 98.4375 56.9917 99.2343 58.41 100.653C59.8282 102.071 60.625 103.994 60.625 106ZM31.1312 31.1312C32.5494 29.7135 34.4726 28.9171 36.4779 28.9171C38.4832 28.9171 40.4064 29.7135 41.8246 31.1312L73.935 63.2265C75.3126 64.6528 76.0748 66.5631 76.0576 68.546C76.0404 70.5288 75.245 72.4256 73.8429 73.8277C72.4407 75.2299 70.544 76.0252 68.5611 76.0425C66.5782 76.0597 64.6679 75.2974 63.2416 73.9199L31.1312 41.8246C29.7135 40.4064 28.9171 38.4832 28.9171 36.4779C28.9171 34.4726 29.7135 32.5494 31.1312 31.1312ZM138.08 138.08C139.498 136.662 141.422 135.866 143.427 135.866C145.432 135.866 147.355 136.662 148.774 138.08L180.869 170.175C182.246 171.602 183.009 173.512 182.991 175.495C182.974 177.478 182.179 179.374 180.777 180.777C179.374 182.179 177.478 182.974 175.495 182.991C173.512 183.009 171.602 182.246 170.175 180.869L138.08 148.774C136.662 147.355 135.866 145.432 135.866 143.427C135.866 141.422 136.662 139.498 138.08 138.08ZM180.869 31.1464C182.282 32.5639 183.075 34.4839 183.075 36.4855C183.075 38.4871 182.282 40.4071 180.869 41.8246L148.774 73.935C147.347 75.3126 145.437 76.0748 143.454 76.0576C141.471 76.0404 139.574 75.245 138.172 73.8429C136.77 72.4407 135.975 70.544 135.958 68.5611C135.94 66.5782 136.703 64.6679 138.08 63.2416L170.175 31.1464C171.594 29.7286 173.517 28.9322 175.522 28.9322C177.527 28.9322 179.451 29.7286 180.869 31.1464ZM73.9199 138.08C75.3376 139.498 76.1341 141.422 76.1341 143.427C76.1341 145.432 75.3376 147.355 73.9199 148.774L41.8246 180.869C40.3983 182.246 38.488 183.009 36.5052 182.991C34.5223 182.974 32.6255 182.179 31.2234 180.777C29.8212 179.374 29.0259 177.478 29.0087 175.495C28.9914 173.512 29.7537 171.602 31.1312 170.175L63.2265 138.08C64.6447 136.662 66.5679 135.866 68.5732 135.866C70.5785 135.866 72.5017 136.662 73.9199 138.08Z" fill="white"/>
</svg>
